<svg width="689" height="200" viewBox="0 0 689 200" fill="none" xmlns="http://www.w3.org/2000/svg">
<path d="M30.9038 199.612C28.9798 199.612 27.3765 198.93 26.0938 197.567L2.04427 173.518C0.681462 172.235 5.76413e-05 170.632 5.76413e-05 168.708V42.3273C5.76413e-05 40.3232 1.00212 39.3212 3.00626 39.3212H37.0364C39.0405 39.3212 40.0426 40.3232 40.0426 42.3273V167.385H66.9781V42.3273C66.9781 40.3232 67.9802 39.3212 69.9843 39.3212H104.014C106.019 39.3212 107.021 40.3232 107.021 42.3273V168.708C107.021 170.632 106.339 172.235 104.976 173.518L80.9269 197.567C79.6442 198.93 78.0409 199.612 76.117 199.612H30.9038ZM141.395 199.612C139.391 199.612 138.388 198.61 138.388 196.605V42.3273C138.388 40.3232 139.391 39.3212 141.395 39.3212H225.207C227.212 39.3212 228.214 40.3232 228.214 42.3273V68.3009C228.214 70.305 227.212 71.3071 225.207 71.3071H178.431V105.457H221.119C223.123 105.457 224.125 106.46 224.125 108.464V130.469C224.125 132.473 223.123 133.475 221.119 133.475H178.431V167.505H225.207C227.212 167.505 228.214 168.507 228.214 170.512V196.605C228.214 198.61 227.212 199.612 225.207 199.612H141.395ZM172.659 33.429C171.136 34.1505 170.054 33.7898 169.412 32.3468L165.204 23.3282C164.643 21.8852 165.083 20.6827 166.526 19.7208L194.905 1.32283C196.348 0.441006 197.43 0.96208 198.152 2.88605L205.006 17.1955C205.647 18.5583 205.206 19.6406 203.683 20.4422L172.659 33.429ZM262.403 199.612C260.399 199.612 259.397 198.61 259.397 196.605V42.3273C259.397 40.3232 260.399 39.3212 262.403 39.3212H296.434C298.438 39.3212 299.44 40.3232 299.44 42.3273V167.505H329.742C331.746 167.505 332.748 168.507 332.748 170.512V196.605C332.748 198.61 331.746 199.612 329.742 199.612H262.403ZM385.24 199.612C383.397 199.612 381.793 198.93 380.43 197.567L356.381 173.518C355.018 172.235 354.337 170.632 354.337 168.708V70.1046C354.337 68.2608 355.018 66.6575 356.381 65.2947L380.43 41.2451C381.793 39.9625 383.397 39.3212 385.24 39.3212H432.498C434.422 39.3212 436.025 39.9625 437.308 41.2451L461.357 65.2947C462.72 66.6575 463.402 68.2608 463.402 70.1046V168.708C463.402 170.632 462.72 172.235 461.357 173.518L437.308 197.567C436.025 198.93 434.422 199.612 432.498 199.612H385.24ZM399.43 167.505H418.309C421.676 167.505 423.359 165.261 423.359 160.772V78.1612C423.359 73.5918 421.676 71.3071 418.309 71.3071H399.43C396.143 71.3071 394.499 73.5918 394.499 78.1612V160.772C394.499 165.261 396.143 167.505 399.43 167.505ZM540.058 199.612C538.214 199.612 536.611 199.09 535.248 198.048L515.647 180.131L495.806 154.278C494.925 153.156 494.363 152.474 494.123 152.234C493.882 151.913 493.762 151.192 493.762 150.069V88.743C493.762 87.6207 493.882 86.8992 494.123 86.5786C494.444 86.2579 495.005 85.5765 495.806 84.5344L514.204 60.7253L535.248 40.8844C536.13 40.1629 536.811 39.722 537.292 39.5616C537.853 39.4013 538.775 39.3212 540.058 39.3212H569.759C571.763 39.3212 572.765 40.3232 572.765 42.3273V61.567C572.765 62.2083 572.685 62.8897 572.525 63.6112C572.444 64.2525 572.044 64.8137 571.322 65.2947L548.716 80.8067L533.925 99.8058V139.127L548.956 158.126L571.322 173.518C571.963 173.919 572.364 174.4 572.525 174.961C572.685 175.522 572.765 176.123 572.765 176.764V196.605C572.765 198.61 571.763 199.612 569.759 199.612H540.058ZM601.474 199.612C599.47 199.612 598.468 198.61 598.468 196.605V42.3273C598.468 40.3232 599.47 39.3212 601.474 39.3212H685.287C687.291 39.3212 688.293 40.3232 688.293 42.3273V68.3009C688.293 70.305 687.291 71.3071 685.287 71.3071H638.511V105.457H681.199C683.203 105.457 684.205 106.46 684.205 108.464V130.469C684.205 132.473 683.203 133.475 681.199 133.475H638.511V167.505H685.287C687.291 167.505 688.293 168.507 688.293 170.512V196.605C688.293 198.61 687.291 199.612 685.287 199.612H601.474Z" fill="#0F0F0F"/>
<a href="https://www.figma.com/site/HZDXxDyQ7niOIcnqbce3yc/Modern-Retro-Beverage-Brand--Community-?node-id=0-3">
<rect fill="black" fill-opacity="0" y="-49.3098" width="717.153" height="300.62"/>
</a>
</svg>
