<svg width="736" height="33" viewBox="0 0 736 33" fill="none" xmlns="http://www.w3.org/2000/svg">
<path d="M0 0H16.0376V16.0376H0V0Z" fill="white"/>
<path d="M194.453 0H210.491V16.0376H194.453V0Z" fill="white"/>
<path d="M810.898 0H826.936V16.0376H810.898V0Z" fill="white"/>
<path d="M97.2266 0H113.264V16.0376H97.2266V0Z" fill="white"/>
<path d="M713.672 0H729.709V16.0376H713.672V0Z" fill="white"/>
<path d="M291.688 0H307.725V16.0376H291.688V0Z" fill="white"/>
<path d="M908.125 0H924.163V16.0376H908.125V0Z" fill="white"/>
<path d="M454.062 0H470.1V16.0376H454.062V0Z" fill="white"/>
<path d="M1070.51 0H1086.55V16.0376H1070.51V0Z" fill="white"/>
<path d="M583.367 0H600.407V16.0376H583.367V0Z" fill="white"/>
<path d="M1199.81 0H1216.85V16.0376H1199.81V0Z" fill="white"/>
<path d="M97.2266 32.0781L81.189 32.0781V16.0406L97.2266 16.0406V32.0781Z" fill="white"/>
<path d="M713.672 32.0781L697.634 32.0781V16.0406L713.672 16.0406V32.0781Z" fill="white"/>
<path d="M291.688 32.0781L275.65 32.0781V16.0406L291.688 16.0406V32.0781Z" fill="white"/>
<path d="M908.125 32.0781L892.087 32.0781V16.0406L908.125 16.0406V32.0781Z" fill="white"/>
<path d="M454.062 32.0781L438.025 32.0781V16.0406L454.062 16.0406V32.0781Z" fill="white"/>
<path d="M1070.51 32.0781L1054.47 32.0781V16.0406L1070.51 16.0406V32.0781Z" fill="white"/>
<path d="M583.367 32.0781L567.33 32.0781V16.0406L583.367 16.0406V32.0781Z" fill="white"/>
<path d="M1199.81 32.0781L1183.77 32.0781V16.0406L1199.81 16.0406V32.0781Z" fill="white"/>
<path d="M194.453 32.0781L178.416 32.0781L178.416 16.0406L194.453 16.0406V32.0781Z" fill="white"/>
<path d="M810.898 32.0781L794.861 32.0781V16.0406L810.898 16.0406V32.0781Z" fill="white"/>
<path d="M388.906 32.0781L372.869 32.0781V16.0406L388.906 16.0406V32.0781Z" fill="white"/>
<path d="M1005.36 32.0781L989.322 32.0781V16.0406L1005.36 16.0406V32.0781Z" fill="white"/>
<path d="M551.297 32.0781L535.259 32.0781V16.0406L551.297 16.0406V32.0781Z" fill="white"/>
<path d="M1167.73 32.0781L1151.7 32.0781V16.0406L1167.73 16.0406V32.0781Z" fill="white"/>
<path d="M16.0391 16.0391H32.0766V32.0766H16.0391V16.0391Z" fill="white"/>
<path d="M632.484 16.0391H648.522V32.0766H632.484V16.0391Z" fill="white"/>
<path d="M210.492 16.0391H227.532V32.0766H210.492V16.0391Z" fill="white"/>
<path d="M826.938 16.0391H843.977V32.0766H826.938V16.0391Z" fill="white"/>
<path d="M113.266 16.0391H129.303V32.0766H113.266V16.0391Z" fill="white"/>
<path d="M729.703 16.0391H745.741V32.0766H729.703V16.0391Z" fill="white"/>
<path d="M307.719 16.0391H324.759V32.0766H307.719V16.0391Z" fill="white"/>
<path d="M924.164 16.0391H941.204V32.0766H924.164V16.0391Z" fill="white"/>
<path d="M470.102 16.0391H486.139V32.0766H470.102V16.0391Z" fill="white"/>
<path d="M1086.55 16.0391H1102.58V32.0766H1086.55V16.0391Z" fill="white"/>
<path d="M600.406 16.0391H616.444V32.0766H600.406V16.0391Z" fill="white"/>
<path d="M1216.85 16.0391H1232.89V32.0766H1216.85V16.0391Z" fill="white"/>
<path d="M1248.92 16.0391H1264.96V32.0766H1248.92V16.0391Z" fill="white"/>
<path d="M81.1875 17.0391L65.1499 17.0391V1.0015L81.1875 1.00151V17.0391Z" fill="white"/>
<path d="M697.633 17.0391L681.595 17.0391V1.0015L697.633 1.00151V17.0391Z" fill="white"/>
<path d="M275.641 17.0391L259.603 17.0391V1.0015L275.641 1.00151V17.0391Z" fill="white"/>
<path d="M892.094 17.0391L876.056 17.0391V1.0015L892.094 1.00151V17.0391Z" fill="white"/>
<path d="M438.031 17.0391L421.994 17.0391V1.0015L438.031 1.00151V17.0391Z" fill="white"/>
<path d="M1054.47 17.0391L1038.43 17.0391V1.0015L1054.47 1.00151V17.0391Z" fill="white"/>
<path d="M567.328 17.0391L551.291 17.0391V1.0015L567.328 1.00151V17.0391Z" fill="white"/>
<path d="M1183.77 17.0391L1167.74 17.0391V1.0015L1183.77 1.00151V17.0391Z" fill="white"/>
<path d="M178.422 17.0391L162.384 17.0391L162.384 1.0015L178.422 1.00151V17.0391Z" fill="white"/>
<path d="M794.859 17.0391L778.822 17.0391V1.0015L794.859 1.00151V17.0391Z" fill="white"/>
<path d="M372.875 17.0391L356.837 17.0391V1.0015L372.875 1.00151V17.0391Z" fill="white"/>
<path d="M989.312 17.0391L973.275 17.0391V1.0015L989.312 1.00151V17.0391Z" fill="white"/>
<path d="M535.25 17.0391L519.212 17.0391V1.0015L535.25 1.00151V17.0391Z" fill="white"/>
<path d="M1151.7 17.0391L1135.66 17.0391V1.0015L1151.7 1.00151V17.0391Z" fill="white"/>
<path d="M32.0781 0H49.118V16.0376H32.0781V0Z" fill="white"/>
<path d="M648.516 0H665.556V16.0376H648.516V0Z" fill="white"/>
<path d="M227.531 0H243.569V16.0376H227.531V0Z" fill="white"/>
<path d="M843.977 0H860.014V16.0376H843.977V0Z" fill="white"/>
<path d="M388.906 0H404.944V16.0376H388.906V0Z" fill="white"/>
<path d="M1005.36 0H1021.4V16.0376H1005.36V0Z" fill="white"/>
<path d="M129.305 0H146.345V16.0376H129.305V0Z" fill="white"/>
<path d="M745.75 0H762.79V16.0376H745.75V0Z" fill="white"/>
<path d="M324.766 0H340.803V16.0376H324.766V0Z" fill="white"/>
<path d="M941.203 0H957.241V16.0376H941.203V0Z" fill="white"/>
<path d="M486.141 0H503.181V16.0376H486.141V0Z" fill="white"/>
<path d="M1102.58 0H1119.62V16.0376H1102.58V0Z" fill="white"/>
<path d="M616.445 0H632.483V16.0376H616.445V0Z" fill="white"/>
<path d="M1232.89 0H1248.93V16.0376H1232.89V0Z" fill="white"/>
<path d="M1264.96 0H1281V16.0376H1264.96V0Z" fill="white"/>
<path d="M65.1562 32.0781L49.1187 32.0781V16.0406L65.1562 16.0406V32.0781Z" fill="white"/>
<path d="M681.594 32.0781L665.556 32.0781V16.0406L681.594 16.0406V32.0781Z" fill="white"/>
<path d="M259.609 32.0781L243.572 32.0781L243.572 16.0406L259.609 16.0406V32.0781Z" fill="white"/>
<path d="M876.047 32.0781L860.009 32.0781V16.0406L876.047 16.0406V32.0781Z" fill="white"/>
<path d="M421.984 32.0781L404.944 32.0781V16.0406L421.984 16.0406V32.0781Z" fill="white"/>
<path d="M1038.44 32.0781L1021.4 32.0781V16.0406L1038.44 16.0406V32.0781Z" fill="white"/>
<path d="M162.375 32.0781L146.337 32.0781L146.337 16.0406L162.375 16.0406V32.0781Z" fill="white"/>
<path d="M778.828 32.0781L762.791 32.0781V16.0406L778.828 16.0406V32.0781Z" fill="white"/>
<path d="M356.836 32.0781L340.798 32.0781V16.0406L356.836 16.0406V32.0781Z" fill="white"/>
<path d="M973.281 32.0781L957.244 32.0781V16.0406L973.281 16.0406V32.0781Z" fill="white"/>
<path d="M519.219 32.0781L503.181 32.0781V16.0406L519.219 16.0406V32.0781Z" fill="white"/>
<path d="M1135.66 32.0781L1119.62 32.0781V16.0406L1135.66 16.0406V32.0781Z" fill="white"/>
</svg>
