<svg width="740" height="249" viewBox="0 0 740 249" fill="none" xmlns="http://www.w3.org/2000/svg">
<path d="M38.6234 248.341C36.2189 248.341 34.2151 247.489 32.612 245.786L2.55486 215.729C0.85162 214.126 0 212.122 0 209.717V51.767C0 49.2622 1.25238 48.0099 3.75714 48.0099H46.288C48.7928 48.0099 50.0452 49.2622 50.0452 51.767V208.064H83.7092V51.767C83.7092 49.2622 84.9616 48.0099 87.4663 48.0099H129.997C132.502 48.0099 133.754 49.2622 133.754 51.767V209.717C133.754 212.122 132.903 214.126 131.199 215.729L101.142 245.786C99.5393 247.489 97.5355 248.341 95.1309 248.341H38.6234Z" fill="#0F0F0F"/>
<path d="M152.669 248.341C150.164 248.341 148.912 247.088 148.912 244.584V51.767C148.912 49.2622 150.164 48.0099 152.669 48.0099H257.418C259.923 48.0099 261.176 49.2622 261.176 51.767V84.2287C261.176 86.7335 259.923 87.9859 257.418 87.9859H198.957V130.667H252.309C254.813 130.667 256.066 131.919 256.066 134.424V161.926C256.066 164.431 254.813 165.684 252.309 165.684H198.957V208.215H257.418C259.923 208.215 261.176 209.467 261.176 211.972V244.584C261.176 247.088 259.923 248.341 257.418 248.341H152.669ZM191.743 40.6459C189.84 41.5476 188.487 41.0967 187.686 39.2933L182.426 28.0219C181.724 26.2184 182.275 24.7156 184.079 23.5133L219.546 0.519562C221.35 -0.582538 222.702 0.0687011 223.604 2.47328L232.17 20.3573C232.972 22.0605 232.421 23.4131 230.517 24.415L191.743 40.6459Z" fill="#0F0F0F"/>
<path d="M279.86 248.341C277.355 248.341 276.103 247.088 276.103 244.584V51.767C276.103 49.2622 277.355 48.0099 279.86 48.0099H322.391C324.896 48.0099 326.148 49.2622 326.148 51.767V208.215H364.02C366.525 208.215 367.777 209.467 367.777 211.972V244.584C367.777 247.088 366.525 248.341 364.02 248.341H279.86Z" fill="#0F0F0F"/>
<path d="M409.336 248.341C407.032 248.341 405.028 247.489 403.325 245.786L373.268 215.729C371.564 214.126 370.713 212.122 370.713 209.717V86.483C370.713 84.1786 371.564 82.1748 373.268 80.4716L403.325 50.4144C405.028 48.8114 407.032 48.0099 409.336 48.0099H468.398C470.803 48.0099 472.807 48.8114 474.41 50.4144L504.467 80.4716C506.17 82.1748 507.022 84.1786 507.022 86.483V209.717C507.022 212.122 506.17 214.126 504.467 215.729L474.41 245.786C472.807 247.489 470.803 248.341 468.398 248.341H409.336ZM427.07 208.215H450.665C454.873 208.215 456.977 205.409 456.977 199.798V96.5522C456.977 90.8413 454.873 87.9859 450.665 87.9859H427.07C422.962 87.9859 420.908 90.8413 420.908 96.5522V199.798C420.908 205.409 422.962 208.215 427.07 208.215Z" fill="#0F0F0F"/>
<path d="M578.781 248.341C576.477 248.341 574.473 247.69 572.77 246.387L548.273 223.994L523.476 191.683C522.374 190.28 521.672 189.429 521.372 189.128C521.071 188.727 520.921 187.826 520.921 186.423V109.777C520.921 108.375 521.071 107.473 521.372 107.072C521.773 106.671 522.474 105.82 523.476 104.517L546.47 74.7607L572.77 49.9636C573.872 49.0619 574.723 48.5108 575.324 48.3104C576.026 48.11 577.178 48.0099 578.781 48.0099H615.902C618.406 48.0099 619.659 49.2622 619.659 51.767V75.8127C619.659 76.6143 619.559 77.4659 619.358 78.3676C619.258 79.1691 618.757 79.8704 617.855 80.4716L589.602 99.8584L571.116 123.604V172.747L589.902 196.492L617.855 215.729C618.657 216.23 619.158 216.831 619.358 217.532C619.559 218.234 619.659 218.985 619.659 219.786V244.584C619.659 247.088 618.406 248.341 615.902 248.341H578.781Z" fill="#0F0F0F"/>
<path d="M631.494 248.341C628.989 248.341 627.737 247.088 627.737 244.584V51.767C627.737 49.2622 628.989 48.0099 631.494 48.0099H736.243C738.748 48.0099 740 49.2622 740 51.767V84.2287C740 86.7335 738.748 87.9859 736.243 87.9859H677.782V130.667H731.133C733.638 130.667 734.89 131.919 734.89 134.424V161.926C734.89 164.431 733.638 165.684 731.133 165.684H677.782V208.215H736.243C738.748 208.215 740 209.467 740 211.972V244.584C740 247.088 738.748 248.341 736.243 248.341H631.494Z" fill="#0F0F0F"/>
</svg>
