<svg width="107" height="36" viewBox="0 0 107 36" fill="none" xmlns="http://www.w3.org/2000/svg">
<path d="M5.47358 35.194C5.13281 35.194 4.84884 35.0733 4.62166 34.8319L0.362066 30.5723C0.120689 30.3451 0 30.0612 0 29.7204V7.33624C0 6.98127 0.177483 6.80379 0.532449 6.80379H6.55977C6.91474 6.80379 7.09222 6.98127 7.09222 7.33624V29.4861H11.863V7.33624C11.863 6.98127 12.0405 6.80379 12.3954 6.80379H18.4227C18.7777 6.80379 18.9552 6.98127 18.9552 7.33624V29.7204C18.9552 30.0612 18.8345 30.3451 18.5931 30.5723L14.3335 34.8319C14.1064 35.0733 13.8224 35.194 13.4816 35.194H5.47358Z" fill="#0F0F0F"/>
<path d="M22.0617 35.194C21.7067 35.194 21.5293 35.0165 21.5293 34.6615V7.33624C21.5293 6.98127 21.7067 6.80379 22.0617 6.80379H36.9064C37.2614 6.80379 37.4388 6.98127 37.4388 7.33624V11.9366C37.4388 12.2916 37.2614 12.469 36.9064 12.469H28.6215V18.5177H36.1823C36.5372 18.5177 36.7147 18.6952 36.7147 19.0501V22.9477C36.7147 23.3026 36.5372 23.4801 36.1823 23.4801H28.6215V29.5074H36.9064C37.2614 29.5074 37.4388 29.6849 37.4388 30.0399V34.6615C37.4388 35.0165 37.2614 35.194 36.9064 35.194H22.0617ZM27.5992 5.76019C27.3294 5.88798 27.1377 5.82408 27.0241 5.56851L26.2787 3.97116C26.1793 3.71558 26.2574 3.5026 26.513 3.33222L31.5393 0.0736304C31.7949 -0.0825552 31.9866 0.00973609 32.1143 0.350504L33.3283 2.88496C33.4419 3.12634 33.3638 3.31802 33.0941 3.46001L27.5992 5.76019Z" fill="#0F0F0F"/>
<path d="M40.5127 35.194C40.1578 35.194 39.9803 35.0165 39.9803 34.6615V7.33624C39.9803 6.98127 40.1578 6.80379 40.5127 6.80379H46.5401C46.895 6.80379 47.0725 6.98127 47.0725 7.33624V29.5074H52.4396C52.7946 29.5074 52.972 29.6849 52.972 30.0399V34.6615C52.972 35.0165 52.7946 35.194 52.4396 35.194H40.5127Z" fill="#0F0F0F"/>
<path d="M59.2876 35.194C58.961 35.194 58.677 35.0733 58.4356 34.8319L54.176 30.5723C53.9347 30.3451 53.814 30.0612 53.814 29.7204V12.2561C53.814 11.9295 53.9347 11.6455 54.176 11.4041L58.4356 7.14456C58.677 6.91738 58.961 6.80379 59.2876 6.80379H67.6577C67.9984 6.80379 68.2824 6.91738 68.5096 7.14456L72.7692 11.4041C73.0106 11.6455 73.1312 11.9295 73.1312 12.2561V29.7204C73.1312 30.0612 73.0106 30.3451 72.7692 30.5723L68.5096 34.8319C68.2824 35.0733 67.9984 35.194 67.6577 35.194H59.2876ZM61.8007 29.5074H65.1445C65.7409 29.5074 66.039 29.1099 66.039 28.3147V13.683C66.039 12.8737 65.7409 12.469 65.1445 12.469H61.8007C61.2186 12.469 60.9275 12.8737 60.9275 13.683V28.3147C60.9275 29.1099 61.2186 29.5074 61.8007 29.5074Z" fill="#0F0F0F"/>
<path d="M83.7266 35.194C83.4001 35.194 83.1161 35.1017 82.8747 34.9171L79.4032 31.7437L75.889 27.1646C75.7328 26.9659 75.6334 26.8452 75.5908 26.8026C75.5482 26.7458 75.5269 26.618 75.5269 26.4192V15.5573C75.5269 15.3585 75.5482 15.2307 75.5908 15.1739C75.6476 15.1171 75.747 14.9964 75.889 14.8118L79.1476 10.5948L82.8747 7.08066C83.0309 6.95287 83.1516 6.87478 83.2368 6.84638C83.3362 6.81799 83.4995 6.80379 83.7266 6.80379H88.9873C89.3422 6.80379 89.5197 6.98127 89.5197 7.33624V10.7439C89.5197 10.8575 89.5055 10.9782 89.4771 11.106C89.4629 11.2196 89.3919 11.319 89.2641 11.4041L85.2601 14.1516L82.6404 17.5167V24.4811L85.3027 27.8462L89.2641 30.5723C89.3777 30.6433 89.4487 30.7285 89.4771 30.8279C89.5055 30.9273 89.5197 31.0338 89.5197 31.1474V34.6615C89.5197 35.0165 89.3422 35.194 88.9873 35.194H83.7266Z" fill="#0F0F0F"/>
<path d="M91.6229 35.194C91.2679 35.194 91.0904 35.0165 91.0904 34.6615V7.33624C91.0904 6.98127 91.2679 6.80379 91.6229 6.80379H106.468C106.823 6.80379 107 6.98127 107 7.33624V11.9366C107 12.2916 106.823 12.469 106.468 12.469H98.1826V18.5177H105.743C106.098 18.5177 106.276 18.6952 106.276 19.0501V22.9477C106.276 23.3026 106.098 23.4801 105.743 23.4801H98.1826V29.5074H106.468C106.823 29.5074 107 29.6849 107 30.0399V34.6615C107 35.0165 106.823 35.194 106.468 35.194H91.6229Z" fill="#0F0F0F"/>
</svg>
