<svg width="115" height="44" viewBox="0 0 115 44" fill="none" xmlns="http://www.w3.org/2000/svg">
<path d="M57.5 0.5C73.3328 0.5 87.6444 2.95596 97.9795 6.91016C103.149 8.88794 107.298 11.2316 110.146 13.8076C112.993 16.3837 114.5 19.1528 114.5 22C114.5 24.8472 112.993 27.6163 110.146 30.1924C107.298 32.7684 103.149 35.1121 97.9795 37.0898C87.6444 41.044 73.3328 43.5 57.5 43.5C41.6672 43.5 27.3556 41.044 17.0205 37.0898C11.8513 35.1121 7.7023 32.7684 4.85449 30.1924C2.00668 27.6163 0.5 24.8472 0.5 22C0.5 19.1528 2.00668 16.3837 4.85449 13.8076C7.7023 11.2316 11.8513 8.88794 17.0205 6.91016C27.3556 2.95596 41.6672 0.5 57.5 0.5ZM28.8652 32.5H32.835V18.3193L40.7832 32.248L40.9268 32.5H45.6221V11.9746H41.6523V26.499L33.5674 12.2285L33.4238 11.9746H28.8652V32.5ZM47.4971 32.5H61.4219V28.7773H51.4678V24.0303H60.8721V20.3896H51.4678V15.6973H61.2021V11.9746H47.4971V32.5ZM61.9258 12.6025L67.0957 32.1279L67.1943 32.5H71.4326L71.5283 32.123L74.6738 19.7812L77.8193 32.123L77.916 32.5H82.1533L82.252 32.1289L87.4502 12.6035L87.6172 11.9746H83.3564L83.2637 12.3564L79.9795 25.8027L76.6719 12.3555L76.5791 11.9746H72.7695L72.6758 12.3555L69.3662 25.8076L66.0576 12.3555L65.9639 11.9746H61.7598L61.9258 12.6025ZM65.1797 12.9746L68.8809 28.0215H69.8525L73.5537 12.9746H75.7949L79.4961 28.0215H80.4678L84.1426 12.9746H86.3164L81.3848 31.5H78.6934L75.1592 17.6318H74.1895L70.6553 31.5H67.9639L63.0586 12.9746H65.1797ZM60.2021 12.9746V14.6973H50.4678V21.3896H59.8721V23.0303H50.4678V29.7773H60.4219V31.5H48.4971V12.9746H60.2021ZM32.8408 12.9746L41.7178 28.6436L42.6523 30.2949V12.9746H44.6221V31.5H41.5078L32.7695 16.1875L31.835 14.5498V31.5H29.8652V12.9746H32.8408Z" stroke="white"/>
</svg>
