<svg width="1280" height="33" viewBox="0 0 1280 33" fill="none" xmlns="http://www.w3.org/2000/svg">
<path d="M0 0H16.0251V16.0251H0V0Z" fill="#0F0F0F"/>
<path d="M194.302 0H210.327V16.0251H194.302V0Z" fill="#0F0F0F"/>
<path d="M810.266 0H826.291V16.0251H810.266V0Z" fill="#0F0F0F"/>
<path d="M97.1508 0H113.176V16.0251H97.1508V0Z" fill="#0F0F0F"/>
<path d="M713.116 0H729.141V16.0251H713.116V0Z" fill="#0F0F0F"/>
<path d="M291.46 0H307.485V16.0251H291.46V0Z" fill="#0F0F0F"/>
<path d="M907.417 0H923.442V16.0251H907.417V0Z" fill="#0F0F0F"/>
<path d="M453.709 0H469.734V16.0251H453.709V0Z" fill="#0F0F0F"/>
<path d="M1069.67 0H1085.7V16.0251H1069.67V0Z" fill="#0F0F0F"/>
<path d="M582.912 0H599.939V16.0251H582.912V0Z" fill="#0F0F0F"/>
<path d="M1198.88 0H1215.9V16.0251H1198.88V0Z" fill="#0F0F0F"/>
<path d="M97.1508 32.0531L81.1257 32.0531V16.0281L97.1508 16.0281V32.0531Z" fill="#0F0F0F"/>
<path d="M713.116 32.0531L697.091 32.0531V16.0281L713.116 16.0281V32.0531Z" fill="#0F0F0F"/>
<path d="M291.46 32.0531L275.435 32.0531V16.0281L291.46 16.0281V32.0531Z" fill="#0F0F0F"/>
<path d="M907.417 32.0531L891.392 32.0531V16.0281L907.417 16.0281V32.0531Z" fill="#0F0F0F"/>
<path d="M453.709 32.0531L437.684 32.0531V16.0281L453.709 16.0281V32.0531Z" fill="#0F0F0F"/>
<path d="M1069.67 32.0531L1053.65 32.0531V16.0281L1069.67 16.0281V32.0531Z" fill="#0F0F0F"/>
<path d="M582.912 32.0531L566.887 32.0531V16.0281L582.912 16.0281V32.0531Z" fill="#0F0F0F"/>
<path d="M1198.88 32.0531L1182.85 32.0531V16.0281L1198.88 16.0281V32.0531Z" fill="#0F0F0F"/>
<path d="M194.302 32.0531L178.276 32.0531L178.276 16.0281L194.302 16.0281V32.0531Z" fill="#0F0F0F"/>
<path d="M810.266 32.0531L794.241 32.0531V16.0281L810.266 16.0281V32.0531Z" fill="#0F0F0F"/>
<path d="M388.603 32.0531L372.578 32.0531V16.0281L388.603 16.0281V32.0531Z" fill="#0F0F0F"/>
<path d="M1004.58 32.0531L988.551 32.0531V16.0281L1004.58 16.0281V32.0531Z" fill="#0F0F0F"/>
<path d="M550.867 32.0531L534.842 32.0531V16.0281L550.867 16.0281V32.0531Z" fill="#0F0F0F"/>
<path d="M1166.82 32.0531L1150.8 32.0531V16.0281L1166.82 16.0281V32.0531Z" fill="#0F0F0F"/>
<path d="M16.0266 16.0266H32.0516V32.0516H16.0266V16.0266Z" fill="#0F0F0F"/>
<path d="M631.991 16.0266H648.016V32.0516H631.991V16.0266Z" fill="#0F0F0F"/>
<path d="M210.328 16.0266H227.355V32.0516H210.328V16.0266Z" fill="#0F0F0F"/>
<path d="M826.293 16.0266H843.32V32.0516H826.293V16.0266Z" fill="#0F0F0F"/>
<path d="M113.177 16.0266H129.202V32.0516H113.177V16.0266Z" fill="#0F0F0F"/>
<path d="M729.134 16.0266H745.159V32.0516H729.134V16.0266Z" fill="#0F0F0F"/>
<path d="M307.479 16.0266H324.506V32.0516H307.479V16.0266Z" fill="#0F0F0F"/>
<path d="M923.444 16.0266H940.47V32.0516H923.444V16.0266Z" fill="#0F0F0F"/>
<path d="M469.735 16.0266H485.76V32.0516H469.735V16.0266Z" fill="#0F0F0F"/>
<path d="M1085.7 16.0266H1101.72V32.0516H1085.7V16.0266Z" fill="#0F0F0F"/>
<path d="M599.938 16.0266H615.963V32.0516H599.938V16.0266Z" fill="#0F0F0F"/>
<path d="M1215.9 16.0266H1231.93V32.0516H1215.9V16.0266Z" fill="#0F0F0F"/>
<path d="M1247.95 16.0266H1263.97V32.0516H1247.95V16.0266Z" fill="#0F0F0F"/>
<path d="M81.1242 17.0258L65.0992 17.0258V1.00072L81.1242 1.00073V17.0258Z" fill="#0F0F0F"/>
<path d="M697.089 17.0258L681.064 17.0258V1.00072L697.089 1.00073V17.0258Z" fill="#0F0F0F"/>
<path d="M275.426 17.0258L259.401 17.0258V1.00072L275.426 1.00073V17.0258Z" fill="#0F0F0F"/>
<path d="M891.398 17.0258L875.373 17.0258V1.00072L891.398 1.00073V17.0258Z" fill="#0F0F0F"/>
<path d="M437.69 17.0258L421.665 17.0258V1.00072L437.69 1.00073V17.0258Z" fill="#0F0F0F"/>
<path d="M1053.65 17.0258L1037.62 17.0258V1.00072L1053.65 1.00073V17.0258Z" fill="#0F0F0F"/>
<path d="M566.886 17.0258L550.861 17.0258V1.00072L566.886 1.00073V17.0258Z" fill="#0F0F0F"/>
<path d="M1182.85 17.0258L1166.83 17.0258V1.00072L1182.85 1.00073V17.0258Z" fill="#0F0F0F"/>
<path d="M178.283 17.0258L162.258 17.0258L162.258 1.00072L178.283 1.00073V17.0258Z" fill="#0F0F0F"/>
<path d="M794.24 17.0258L778.215 17.0258V1.00072L794.24 1.00073V17.0258Z" fill="#0F0F0F"/>
<path d="M372.584 17.0258L356.559 17.0258V1.00072L372.584 1.00073V17.0258Z" fill="#0F0F0F"/>
<path d="M988.541 17.0258L972.516 17.0258V1.00072L988.541 1.00073V17.0258Z" fill="#0F0F0F"/>
<path d="M534.833 17.0258L518.808 17.0258V1.00072L534.833 1.00073V17.0258Z" fill="#0F0F0F"/>
<path d="M1150.8 17.0258L1134.77 17.0258V1.00072L1150.8 1.00073V17.0258Z" fill="#0F0F0F"/>
<path d="M32.0531 0H49.0797V16.0251H32.0531V0Z" fill="#0F0F0F"/>
<path d="M648.01 0H665.037V16.0251H648.01V0Z" fill="#0F0F0F"/>
<path d="M227.354 0H243.379V16.0251H227.354V0Z" fill="#0F0F0F"/>
<path d="M843.319 0H859.344V16.0251H843.319V0Z" fill="#0F0F0F"/>
<path d="M388.603 0H404.628V16.0251H388.603V0Z" fill="#0F0F0F"/>
<path d="M1004.58 0H1020.6V16.0251H1004.58V0Z" fill="#0F0F0F"/>
<path d="M129.204 0H146.231V16.0251H129.204V0Z" fill="#0F0F0F"/>
<path d="M745.169 0H762.195V16.0251H745.169V0Z" fill="#0F0F0F"/>
<path d="M324.512 0H340.538V16.0251H324.512V0Z" fill="#0F0F0F"/>
<path d="M940.469 0H956.495V16.0251H940.469V0Z" fill="#0F0F0F"/>
<path d="M485.762 0H502.788V16.0251H485.762V0Z" fill="#0F0F0F"/>
<path d="M1101.72 0H1118.75V16.0251H1101.72V0Z" fill="#0F0F0F"/>
<path d="M615.965 0H631.99V16.0251H615.965V0Z" fill="#0F0F0F"/>
<path d="M1231.93 0H1247.95V16.0251H1231.93V0Z" fill="#0F0F0F"/>
<path d="M1263.97 0H1280V16.0251H1263.97V0Z" fill="#0F0F0F"/>
<path d="M65.1055 32.0531L49.0804 32.0531V16.0281L65.1055 16.0281V32.0531Z" fill="#0F0F0F"/>
<path d="M681.062 32.0531L665.037 32.0531V16.0281L681.062 16.0281V32.0531Z" fill="#0F0F0F"/>
<path d="M259.407 32.0531L243.382 32.0531L243.382 16.0281L259.407 16.0281V32.0531Z" fill="#0F0F0F"/>
<path d="M875.364 32.0531L859.339 32.0531V16.0281L875.364 16.0281V32.0531Z" fill="#0F0F0F"/>
<path d="M421.655 32.0531L404.629 32.0531V16.0281L421.655 16.0281V32.0531Z" fill="#0F0F0F"/>
<path d="M1037.63 32.0531L1020.6 32.0531V16.0281L1037.63 16.0281V32.0531Z" fill="#0F0F0F"/>
<path d="M162.248 32.0531L146.223 32.0531L146.223 16.0281L162.248 16.0281V32.0531Z" fill="#0F0F0F"/>
<path d="M778.221 32.0531L762.196 32.0531V16.0281L778.221 16.0281V32.0531Z" fill="#0F0F0F"/>
<path d="M356.558 32.0531L340.533 32.0531V16.0281L356.558 16.0281V32.0531Z" fill="#0F0F0F"/>
<path d="M972.523 32.0531L956.498 32.0531V16.0281L972.523 16.0281V32.0531Z" fill="#0F0F0F"/>
<path d="M518.814 32.0531L502.789 32.0531V16.0281L518.814 16.0281V32.0531Z" fill="#0F0F0F"/>
<path d="M1134.77 32.0531L1118.75 32.0531V16.0281L1134.77 16.0281V32.0531Z" fill="#0F0F0F"/>
</svg>
