<svg width="136" height="45" viewBox="0 0 136 45" fill="none" xmlns="http://www.w3.org/2000/svg">
<path d="M6.94128 44.8345C6.50914 44.8345 6.14903 44.6814 5.86094 44.3753L0.459213 38.9736C0.153115 38.6855 6.65045e-05 38.3254 6.65045e-05 37.8933V9.50721C6.65045e-05 9.05707 0.225138 8.83199 0.675282 8.83199H8.31872C8.76886 8.83199 8.99393 9.05707 8.99393 9.50721V37.5962H15.0439V9.50721C15.0439 9.05707 15.2689 8.83199 15.7191 8.83199H23.3625C23.8127 8.83199 24.0377 9.05707 24.0377 9.50721V37.8933C24.0377 38.3254 23.8847 38.6855 23.5786 38.9736L18.1769 44.3753C17.8888 44.6814 17.5287 44.8345 17.0965 44.8345H6.94128ZM27.9772 44.8345C27.527 44.8345 27.302 44.6094 27.302 44.1593V9.50721C27.302 9.05707 27.527 8.83199 27.9772 8.83199H46.8022C47.2523 8.83199 47.4774 9.05707 47.4774 9.50721V15.3411C47.4774 15.7912 47.2523 16.0163 46.8022 16.0163H36.2958V23.6867H45.8839C46.334 23.6867 46.5591 23.9118 46.5591 24.3619V29.3045C46.5591 29.7547 46.334 29.9797 45.8839 29.9797H36.2958V37.6232H46.8022C47.2523 37.6232 47.4774 37.8482 47.4774 38.2984V44.1593C47.4774 44.6094 47.2523 44.8345 46.8022 44.8345H27.9772ZM34.9994 7.50857C34.6573 7.67062 34.4142 7.5896 34.2702 7.2655L33.3249 5.23985C33.1989 4.91575 33.2979 4.64566 33.622 4.42959L39.996 0.297274C40.3201 0.09921 40.5632 0.216247 40.7253 0.648386L42.2647 3.86241C42.4088 4.16851 42.3098 4.41158 41.9676 4.59164L34.9994 7.50857ZM51.3755 44.8345C50.9254 44.8345 50.7003 44.6094 50.7003 44.1593V9.50721C50.7003 9.05707 50.9254 8.83199 51.3755 8.83199H59.0189C59.4691 8.83199 59.6942 9.05707 59.6942 9.50721V37.6232H66.5003C66.9505 37.6232 67.1755 37.8482 67.1755 38.2984V44.1593C67.1755 44.6094 66.9505 44.8345 66.5003 44.8345H51.3755ZM75.1844 44.8345C74.7703 44.8345 74.4102 44.6814 74.1041 44.3753L68.7024 38.9736C68.3963 38.6855 68.2432 38.3254 68.2432 37.8933V15.7462C68.2432 15.3321 68.3963 14.972 68.7024 14.6659L74.1041 9.26413C74.4102 8.97604 74.7703 8.83199 75.1844 8.83199H85.7988C86.231 8.83199 86.5911 8.97604 86.8792 9.26413L92.2809 14.6659C92.587 14.972 92.74 15.3321 92.74 15.7462V37.8933C92.74 38.3254 92.587 38.6855 92.2809 38.9736L86.8792 44.3753C86.5911 44.6814 86.231 44.8345 85.7988 44.8345H75.1844ZM78.3715 37.6232H82.6118C83.3681 37.6232 83.7462 37.119 83.7462 36.1107V17.5558C83.7462 16.5294 83.3681 16.0163 82.6118 16.0163H78.3715C77.6332 16.0163 77.2641 16.5294 77.2641 17.5558V36.1107C77.2641 37.119 77.6332 37.6232 78.3715 37.6232ZM106.176 44.8345C105.762 44.8345 105.402 44.7174 105.096 44.4834L100.694 40.4591L96.2372 34.6522C96.0392 34.4001 95.9131 34.2471 95.8591 34.1931C95.8051 34.1211 95.7781 33.959 95.7781 33.7069V19.9325C95.7781 19.6805 95.8051 19.5184 95.8591 19.4464C95.9311 19.3744 96.0572 19.2213 96.2372 18.9872L100.37 13.6395L105.096 9.18311C105.294 9.02105 105.447 8.92202 105.555 8.88601C105.681 8.85 105.888 8.83199 106.176 8.83199H112.848C113.298 8.83199 113.523 9.05707 113.523 9.50721V13.8286C113.523 13.9726 113.505 14.1257 113.469 14.2877C113.451 14.4318 113.361 14.5578 113.199 14.6659L108.121 18.15L104.799 22.4173V31.2491L108.175 35.5165L113.199 38.9736C113.343 39.0636 113.433 39.1717 113.469 39.2977C113.505 39.4237 113.523 39.5588 113.523 39.7028V44.1593C113.523 44.6094 113.298 44.8345 112.848 44.8345H106.176ZM116.19 44.8345C115.74 44.8345 115.515 44.6094 115.515 44.1593V9.50721C115.515 9.05707 115.74 8.83199 116.19 8.83199H135.015C135.465 8.83199 135.69 9.05707 135.69 9.50721V15.3411C135.69 15.7912 135.465 16.0163 135.015 16.0163H124.508V23.6867H134.097C134.547 23.6867 134.772 23.9118 134.772 24.3619V29.3045C134.772 29.7547 134.547 29.9797 134.097 29.9797H124.508V37.6232H135.015C135.465 37.6232 135.69 37.8482 135.69 38.2984V44.1593C135.69 44.6094 135.465 44.8345 135.015 44.8345H116.19Z" fill="#0F0F0F"/>
<a href="https://www.figma.com/site/HZDXxDyQ7niOIcnqbce3yc/Modern-Retro-Beverage-Brand--Community-?node-id=0-3">
<rect fill="black" fill-opacity="0" y="-11.2608" width="142.172" height="67.5215"/>
</a>
</svg>
